<?xml version="1.0"?>
<svg xmlns="http://www.w3.org/2000/svg" xmlns:xlink="http://www.w3.org/1999/xlink" xmlns:svgjs="http://svgjs.com/svgjs" version="1.1" width="512" height="512" x="0" y="0" viewBox="0 0 512 512" style="enable-background:new 0 0 512 512" xml:space="preserve" class=""><g>
<g xmlns="http://www.w3.org/2000/svg">
	<g>
		<path d="M503.738,122.594l-241-121c-4.234-2.126-9.227-2.126-13.461,0l-241,121c-5.077,2.549-8.279,7.749-8.27,13.43    c0.009,5.681,3.229,10.87,8.314,13.403l21.686,10.798v233.354c-17.459,6.192-30,22.865-30,42.42v61c0,8.284,6.715,15,15,15h60    c8.284,0,15-6.716,15-15v-61c0-19.555-12.541-36.228-30-42.42V175.162l31,15.436V256c0,29.517,18.189,56.686,51.217,76.502    C172.852,350.878,213.261,361,256.007,361c89.278,0,165-44.576,165-105v-65.401l82.686-41.171    C514.729,143.932,514.773,128.135,503.738,122.594z M60.007,482h-30v-46c0-8.24,6.679-14.945,14.908-14.995    c0.031,0,0.061,0.005,0.092,0.005s0.061-0.004,0.092-0.005c8.229,0.05,14.908,6.755,14.908,14.995V482z M391.007,256    c0,40.654-61.822,75-135,75s-135-34.346-135-75v-50.464l128.314,63.891c2.105,1.048,4.396,1.573,6.686,1.573    c2.29,0,4.58-0.524,6.686-1.573l128.314-63.891V256z M256.007,239.244c-11.168-5.561-198.681-98.928-207.459-103.299    l207.459-104.16l207.459,104.16C454.281,140.518,266.787,233.877,256.007,239.244z" fill="#c78c32" data-original="#000000" style="" class=""/>
	</g>
</g>
<g xmlns="http://www.w3.org/2000/svg">
</g>
<g xmlns="http://www.w3.org/2000/svg">
</g>
<g xmlns="http://www.w3.org/2000/svg">
</g>
<g xmlns="http://www.w3.org/2000/svg">
</g>
<g xmlns="http://www.w3.org/2000/svg">
</g>
<g xmlns="http://www.w3.org/2000/svg">
</g>
<g xmlns="http://www.w3.org/2000/svg">
</g>
<g xmlns="http://www.w3.org/2000/svg">
</g>
<g xmlns="http://www.w3.org/2000/svg">
</g>
<g xmlns="http://www.w3.org/2000/svg">
</g>
<g xmlns="http://www.w3.org/2000/svg">
</g>
<g xmlns="http://www.w3.org/2000/svg">
</g>
<g xmlns="http://www.w3.org/2000/svg">
</g>
<g xmlns="http://www.w3.org/2000/svg">
</g>
<g xmlns="http://www.w3.org/2000/svg">
</g>
</g></svg>
