<?xml version="1.0"?>
<svg xmlns="http://www.w3.org/2000/svg" xmlns:xlink="http://www.w3.org/1999/xlink" xmlns:svgjs="http://svgjs.com/svgjs" version="1.1" width="512" height="512" x="0" y="0" viewBox="0 0 448.545 448.545" style="enable-background:new 0 0 512 512" xml:space="preserve" class=""><g>
<g xmlns="http://www.w3.org/2000/svg">
	<g>
		<path d="M101.056,448.545h73.746c6.903,0,12.5-5.598,12.5-12.5v-82.104h35.057c3.77,0,7.336-1.701,9.71-4.629    c2.373-2.929,3.3-6.771,2.52-10.459L191.23,133.931l-0.021-0.123c-0.395-2.349-1.434-4.446-2.91-6.138    c14.404-13.478,23.432-32.634,23.432-53.869C211.731,33.107,178.625,0,137.93,0C97.235,0,64.129,33.106,64.129,73.801    c0,21.233,9.025,40.388,23.427,53.864c-1.364,1.564-2.353,3.479-2.807,5.623L41.36,338.318c-0.036,0.174-0.069,0.348-0.099,0.522    l-0.09,0.536c-0.607,3.625,0.412,7.334,2.787,10.141s5.865,4.424,9.541,4.424h35.057v82.104    C88.556,442.947,94.153,448.545,101.056,448.545z M137.929,25.002c26.909,0,48.801,21.892,48.801,48.801    c0,26.909-21.892,48.801-48.801,48.801c-26.909,0-48.801-21.892-48.801-48.801C89.128,46.894,111.02,25.002,137.929,25.002z     M68.898,328.941l38.212-180.563h61.622l38.205,180.563h-32.135c-6.903,0-12.5,5.598-12.5,12.5v82.104h-48.746v-82.104    c0-6.902-5.597-12.5-12.5-12.5H68.898z" fill="#c78c32" data-original="#000000" style="" class=""/>
		<path d="M292.179,448.275h73.744c6.902,0,12.5-5.598,12.5-12.5v-82.104h16.621c6.902,0,12.5-5.597,12.5-12.5l0.002-205.708    c0-6.902-5.595-12.498-12.496-12.5l-11.013-0.003c11.689-13.063,18.814-30.291,18.814-49.158    c0-40.694-33.106-73.801-73.801-73.801c-40.695,0-73.801,33.106-73.801,73.801c0,18.851,7.112,36.064,18.784,49.123l-10.823-0.004    c-0.001,0-0.003,0-0.004,0c-3.313,0-6.492,1.316-8.836,3.658c-2.346,2.344-3.663,5.523-3.664,8.838l-0.058,204.256    c-0.415,3.442,0.618,6.914,2.869,9.574c2.375,2.806,5.865,4.424,9.541,4.424h16.619v82.104    C279.679,442.678,285.275,448.275,292.179,448.275z M329.052,25.002c26.908,0,48.801,21.892,48.801,48.801    c0,26.909-21.893,48.801-48.801,48.801c-26.909,0-48.802-21.892-48.802-48.801C280.25,46.894,302.143,25.002,329.052,25.002z     M275.652,328.671l0.052-180.746l106.843,0.034l-0.002,180.712h-16.622c-6.903,0-12.5,5.597-12.5,12.5v82.104h-48.744v-82.104    c0-6.903-5.598-12.5-12.5-12.5H275.652z" fill="#c78c32" data-original="#000000" style="" class=""/>
	</g>
</g>
<g xmlns="http://www.w3.org/2000/svg">
</g>
<g xmlns="http://www.w3.org/2000/svg">
</g>
<g xmlns="http://www.w3.org/2000/svg">
</g>
<g xmlns="http://www.w3.org/2000/svg">
</g>
<g xmlns="http://www.w3.org/2000/svg">
</g>
<g xmlns="http://www.w3.org/2000/svg">
</g>
<g xmlns="http://www.w3.org/2000/svg">
</g>
<g xmlns="http://www.w3.org/2000/svg">
</g>
<g xmlns="http://www.w3.org/2000/svg">
</g>
<g xmlns="http://www.w3.org/2000/svg">
</g>
<g xmlns="http://www.w3.org/2000/svg">
</g>
<g xmlns="http://www.w3.org/2000/svg">
</g>
<g xmlns="http://www.w3.org/2000/svg">
</g>
<g xmlns="http://www.w3.org/2000/svg">
</g>
<g xmlns="http://www.w3.org/2000/svg">
</g>
</g></svg>
